<?xml version="1.0" standalone="no"?>
<!DOCTYPE svg PUBLIC "-//W3C//DTD SVG 20010904//EN"
 "http://www.w3.org/TR/2001/REC-SVG-20010904/DTD/svg10.dtd">
<svg version="1.0" xmlns="http://www.w3.org/2000/svg"
 width="512.000000pt" height="512.000000pt" viewBox="0 0 512.000000 512.000000"
 preserveAspectRatio="xMidYMid meet">
<metadata>
Created by potrace 1.14, written by Peter Selinger 2001-2017
</metadata>
<g transform="translate(0.000000,512.000000) scale(0.100000,-0.100000)"
fill="#000000" stroke="none">
<path d="M952 4995 c-82 -25 -161 -107 -183 -189 -8 -29 -11 -412 -12 -1309
l0 -1267 -36 21 c-20 12 -64 37 -98 56 -73 40 -88 37 -125 -29 -13 -24 -86
-150 -162 -282 -119 -206 -137 -242 -128 -261 6 -13 57 -49 121 -86 l110 -64
-7 -80 c-7 -102 -7 -144 1 -226 l7 -67 -111 -63 c-63 -36 -116 -73 -122 -86
-8 -18 6 -48 90 -195 55 -95 126 -218 157 -273 63 -109 89 -138 116 -130 10 3
65 33 123 66 l106 61 33 -23 c18 -13 35 -26 38 -30 9 -12 165 -98 208 -115
l42 -16 0 -133 c0 -115 2 -134 18 -148 17 -15 55 -17 344 -17 297 0 326 2 340
18 12 13 16 43 15 144 0 71 1 130 4 132 2 2 40 21 83 41 79 38 208 119 214
136 6 16 23 10 126 -49 122 -70 133 -75 155 -62 10 5 62 86 116 180 54 93 100
171 104 171 3 1 102 2 219 3 182 2 214 4 229 18 14 15 16 54 17 345 l1 328
259 2 c237 1 261 3 273 19 10 14 13 80 13 281 l0 263 23 1 c12 0 129 0 259 0
232 0 238 1 253 22 13 19 15 141 15 981 l0 959 -483 484 -484 483 -1119 -1
c-904 0 -1127 -3 -1162 -14z"/>
<path d="M3869 1834 c-11 -13 -14 -78 -14 -298 -1 -254 4 -323 24 -327 3 -1
137 -3 297 -4 230 -1 296 2 310 12 17 12 18 35 18 307 1 232 -2 297 -13 310
-12 14 -48 16 -311 16 -262 0 -299 -2 -311 -16z"/>
<path d="M4315 1002 c-45 -9 -45 -9 -45 -337 0 -285 2 -313 18 -327 14 -12 66
-14 310 -14 271 1 295 3 307 19 19 26 19 618 0 644 -12 16 -36 18 -291 18
-154 0 -288 -1 -299 -3z"/>
<path d="M3360 978 c-16 -15 -17 -41 -17 -317 0 -228 3 -305 12 -318 12 -16
40 -18 302 -19 227 -1 293 2 311 13 l22 13 0 309 c0 266 -2 310 -15 321 -12
10 -86 13 -306 14 -258 1 -293 -1 -309 -16z"/>
</g>
</svg>
